Coordinates
version=1
nRows=29
nColumns=22
inDegrees=yes

Units are S.I. units (second, meters, Newtons, ...)
If the header above contains a line with 'inDegrees', this indicates whether rotational values are in degrees (yes) or radians (no).

endheader
time	pelvis_tilt	pelvis_list	pelvis_rotation	pelvis_tx	pelvis_ty	pelvis_tz	hip_flexion_r	hip_adduction_r	hip_rotation_r	knee_angle_r	ankle_angle_r	subtalar_angle_r	hip_flexion_l	hip_adduction_l	hip_rotation_l	knee_angle_l	ankle_angle_l	subtalar_angle_l	lumbar_extension	lumbar_bending	lumbar_rotation
      0.66000000	     -1.40987337	      2.97189791	    -31.43642259	      0.74879913	      0.90993215	      0.59779814	     50.56331080	     -7.73621106	     -2.90700563	    -80.64471866	     13.00894748	     -7.67182371	     25.80423546	      7.68587653	     -4.59529068	    -57.97033418	     29.88136970	     -4.12363821	    -11.12380716	     -2.49120926	     -2.85327680
      0.67000000	     -1.37365879	      2.53457262	    -31.61828793	      0.77948977	      0.91383349	      0.61862851	     51.56113215	     -7.51986139	     -4.07457351	    -75.14355392	     11.54847738	     -6.37085670	     23.20858772	      7.25131548	     -4.23852721	    -58.39328990	     28.55400023	     -2.38931265	    -11.04447264	     -1.77703799	     -3.39192810
      0.68000000	     -1.43904369	      2.03173250	    -31.67535144	      0.81038705	      0.91829908	      0.63958495	     51.90455485	     -7.19167720	     -5.55317396	    -69.00711310	      9.61696098	     -4.58794971	     20.86000383	      6.69794791	     -3.74678872	    -58.98750016	     26.34745109	     -0.37330108	    -10.85731547	     -0.94751264	     -3.84692052
      0.69000000	     -1.54886534	      1.48204831	    -31.57666804	      0.84147141	      0.92312813	      0.66072536	     51.61166876	     -6.74733003	     -7.21486321	    -62.42129730	      7.30585947	     -2.13754039	     18.80796380	      6.06554539	     -3.09977110	    -59.85705857	     23.34056760	      1.77229541	    -10.61887128	     -0.07546131	     -4.30471500
      0.70000000	     -1.64639649	      0.93437410	    -31.30660354	      0.87273902	      0.92803621	      0.68207370	     50.77883134	     -6.21243936	     -8.88923051	    -55.64895246	      4.76445557	      1.11652862	     17.09837748	      5.43601735	     -2.27350257	    -61.06613014	     19.70229126	      3.91598975	    -10.36119653	      0.73773434	     -4.78373741
      0.71000000	     -1.68370003	      0.45621387	    -30.86190806	      0.90420183	      0.93269215	      0.70358392	     49.56856230	     -5.66581454	    -10.43563404	    -49.03415825	      2.13913225	      5.17620550	     15.76487472	      4.91804009	     -1.25695313	    -62.63167003	     15.72556765	      5.94366245	    -10.09545786	      1.38965746	     -5.25794267
      0.72000000	     -1.61975656	      0.06430411	    -30.29914063	      0.93576957	      0.93682993	      0.72526668	     48.12985928	     -5.13676859	    -11.74852766	    -42.95642022	     -0.27358410	      9.74482920	     14.80459492	      4.53693732	     -0.13205446	    -64.55514435	     11.70978991	      7.74711060	     -9.87167209	      1.83402498	     -5.73300940
      0.73000000	     -1.46307556	     -0.18380585	    -29.66012718	      0.96733176	      0.94015239	      0.74694990	     46.69089871	     -4.73339939	    -12.83876708	    -37.81909126	     -2.41361644	     14.42091286	     14.26514420	      4.37294645	      1.06136965	    -66.80880917	      8.08945511	      9.31130898	     -9.67545560	      2.03307555	     -6.18411984
      0.74000000	     -1.25721753	     -0.35167391	    -29.01661529	      0.99875140	      0.94251007	      0.76854152	     45.37100077	     -4.44650896	    -13.88818107	    -33.91270451	     -4.09126007	     18.51051018	     14.15937983	      4.34476221	      2.24190154	    -69.37760856	      5.15135430	     10.55720845	     -9.53189618	      2.09326667	     -6.53219349
      0.75000000	     -1.05251789	     -0.48716571	    -28.44005521	      1.02979588	      0.94377568	      0.78999265	     44.26899175	     -4.22466407	    -15.00187915	    -31.40433208	     -5.22184449	     21.44035585	     14.52019666	      4.37607391	      3.33028257	    -72.23492664	      3.07911514	     11.42873375	     -9.44773931	      2.09386541	     -6.70930162
      0.76000000	     -0.89259147	     -0.64825251	    -27.99851522	      1.06029180	      0.94385781	      0.81127719	     43.41241072	     -3.97703918	    -16.17816566	    -30.29816153	     -5.74098692	     22.78497732	     15.36487752	      4.37048354	      4.24584589	    -75.34086124	      1.88984073	     11.86882158	     -9.42812166	      2.13239883	     -6.67203046
      0.77000000	     -0.78932855	     -0.88650216	    -27.73095291	      1.09009315	      0.94271078	      0.83244836	     42.76612248	     -3.61426290	    -17.29985321	    -30.47950150	     -5.59512717	     22.44452895	     16.67153420	      4.23945420	      4.94948171	    -78.63088987	      1.48849801	     11.84009131	     -9.49575096	      2.25938670	     -6.38068606
      0.78000000	     -0.76286117	     -1.15890648	    -27.70128539	      1.11914030	      0.94020764	      0.85357546	     42.35182644	     -3.07050809	    -18.09193797	    -31.76830673	     -4.73353128	     19.90470733	     18.46173726	      3.97293126	      5.37333636	    -82.01919081	      1.62164494	     11.46889246	     -9.59689841	      2.44289814	     -5.78247693
      0.79000000	     -0.76811058	     -1.50195924	    -27.89217149	      1.14748145	      0.93645719	      0.87468295	     42.06058992	     -2.32099863	    -18.46693015	    -33.94672483	     -3.12050413	     15.76508552	     20.62388058	      3.52698467	      5.55913131	    -85.39315700	      2.17757626	     10.74031097	     -9.78565009	      2.69461808	     -4.89392015
      0.80000000	     -0.76300574	     -1.89018027	    -28.31254284	      1.17522808	      0.93161085	      0.89581341	     41.82304487	     -1.37483245	    -18.37168272	    -36.79114924	     -0.79641817	     10.38997111	     23.05980867	      2.91743121	      5.51892283	    -88.61753317	      3.06647892	      9.74375862	    -10.06999584	      2.96318386	     -3.69135718
      0.81000000	     -0.74535802	     -2.31171327	    -28.93183857	      1.20250014	      0.92589605	      0.91698202	     41.58188680	     -0.25348600	    -17.86261959	    -40.07053190	      2.17255630	      4.65034835	     25.71575463	      2.13995263	      5.31019533	    -91.57175155	      4.08987934	      8.54133087	    -10.42393565	      3.23469754	     -2.21324224
      0.82000000	     -0.69352130	     -2.78014278	    -29.71103023	      1.22942113	      0.91969449	      0.93819064	     41.24110148	      1.01589643	    -17.05514267	    -43.56318563	      5.63851370	     -0.60936740	     28.48978814	      1.19684117	      5.00759283	    -94.12911738	      5.19798493	      7.22485063	    -10.86239175	      3.50755607	     -0.48641507
      0.83000000	     -0.62292847	     -3.30212838	    -30.60098000	      1.25609262	      0.91339671	      0.95942588	     40.74278477	      2.40624033	    -16.06844373	    -47.07110531	      9.38918338	     -4.84809517	     31.32785547	      0.09714833	      4.68978279	    -96.17794791	      6.32339499	      5.90576165	    -11.36346853	      3.79397048	      1.43380718
      0.84000000	     -0.57387924	     -3.83974134	    -31.54368035	      1.28261455	      0.90733618	      0.98067026	     40.08697718	      3.85565000	    -15.00295529	    -50.44466203	     13.19698869	     -7.92214378	     34.22963459	     -1.10804546	      4.41451007	    -97.61863723	      7.35780515	      4.69204177	    -11.85461782	      4.07700403	      3.46614436
      0.85000000	     -0.54293043	     -4.38185296	    -32.48943669	      1.30914123	      0.90193090	      1.00188413	     39.21577388	      5.29558244	    -13.94877483	    -53.55819631	     16.84112534	     -9.90646928	     37.11705739	     -2.36003280	      4.20671198	    -98.35067899	      8.34607295	      3.65972035	    -12.32492435	      4.35272560	      5.53329026
      0.86000000	     -0.54968300	     -4.85722851	    -33.39003408	      1.33580027	      0.89745146	      1.02303330	     38.15187652	      6.62550705	    -12.94191409	    -56.34026544	     20.16219833	    -10.96498302	     39.97652113	     -3.56628063	      4.03724983	    -98.29312041	      9.17696606	      2.86090314	    -12.69875818	      4.57040718	      7.54597317
      0.87000000	     -0.58075130	     -5.22042235	    -34.20599161	      1.36270198	      0.89414298	      1.04407252	     36.88970265	      7.75339987	    -12.00690251	    -58.74601046	     23.03065402	    -11.27644546	     42.73564565	     -4.65231885	      3.84617917	    -97.38601131	      9.80087004	      2.31655399	    -12.95042078	      4.69114953	      9.42810081
      0.88000000	     -0.61423081	     -5.43641266	    -34.90344453	      1.38988528	      0.89215055	      1.06492853	     35.44105279	      8.60545879	    -11.14999527	    -60.76763236	     25.36929193	    -10.98104559	     45.30196562	     -5.55593809	      3.55696095	    -95.59373786	     10.17864867	      2.04539475	    -13.06589324	      4.67871262	     11.11349415
      0.89000000	     -0.63026853	     -5.49274297	    -35.45937841	      1.41727114	      0.89150570	      1.08551003	     33.83449215	      9.14475954	    -10.37045458	    -62.42120382	     27.11043732	    -10.19205937	     47.57354618	     -6.25203869	      3.09759319	    -92.92369214	     10.26109880	      2.10268307	    -13.04931316	      4.51536311	     12.56327785
      0.90000000	     -0.62578814	     -5.39704445	    -35.87434186	      1.44461930	      0.89211150	      1.10564986	     32.13556670	      9.38078725	     -9.66282012	    -63.75124661	     28.21340633	     -8.98324268	     49.46172620	     -6.75068447	      2.41565684	    -89.43845398	      9.98234732	      2.54382057	    -12.91183165	      4.21054431	     13.77195574
      0.91000000	     -0.60314133	     -5.17719203	    -36.16572442	      1.47149689	      0.89377997	      1.12510714	     30.42295778	      9.36644456	     -9.00727046	    -64.81556216	     28.64367585	     -7.45521081	     50.89118769	     -7.07910189	      1.50333852	    -85.26971164	      9.29295808	      3.40908397	    -12.67175475	      3.79559472	     14.76338659
      0.92000000	     -0.56344429	     -4.87252615	    -36.36957803	      1.49721949	      0.89623137	      1.14346144	     28.79073472	      9.16898005	     -8.38538504	    -65.68411867	     28.41523598	     -5.66760414	     51.81813499	     -7.26966742	      0.39094977	    -80.64067906	      8.22876401	      4.71716859	    -12.36797268	      3.31285761	     15.58219123
      0.93000000	     -0.50685748	     -4.53430599	    -36.52684239	      1.52081838	      0.89910834	      1.16014637	     27.32518358	      8.87242541	     -7.78579610	    -66.40781926	     27.67863289	     -3.78687675	     52.25924476	     -7.36271631	     -0.84153265	    -75.88599482	      6.87831015	      6.38107684	    -12.04880756	      2.81018230	     16.26575950
      0.94000000	     -0.44263682	     -4.22094022	    -36.65926122	      1.54112317	      0.90200267	      1.17438578	     26.11038692	      8.55647275	     -7.23293467	    -67.01619494	     26.61684398	     -1.99061501	     52.31292980	     -7.38469942	     -2.04392179	    -71.44306992	      5.41564161	      8.21817149	    -11.76116777	      2.35637316	     16.84170535
